<svg width="33" height="32" viewBox="0 0 33 32" fill="none" xmlns="http://www.w3.org/2000/svg">
<g clip-path="url(#clip0_1271_5251)">
<path d="M14.7062 10.803C14.183 11.3276 13.5611 11.7435 12.8765 12.0267C12.1919 12.31 11.4579 12.455 10.717 12.4534C10.5094 12.4534 10.3017 12.4424 10.0995 12.4151C9.81332 12.3885 9.52993 12.3373 9.2525 12.2621V15.2895H8.15957V10.5298C7.78797 10.6555 7.39998 10.7375 7.00652 10.7757C6.80433 10.803 6.59667 10.814 6.38901 10.814C4.94634 10.814 3.50367 10.2675 2.3998 9.16365C1.14293 7.91224 0.607394 6.20726 0.782263 4.56786C0.831445 4.10337 0.935274 3.6498 1.09921 3.20716C1.72969 2.97724 2.3954 2.85889 3.06649 2.85742C4.57474 2.85742 5.99009 3.44214 7.0557 4.50775C8.11038 5.55697 8.65685 6.92313 8.70057 8.30023C8.9738 7.51332 9.4219 6.77559 10.0503 6.14715C11.116 5.08154 12.5313 4.49682 14.0395 4.49682C14.7106 4.49829 15.3764 4.61664 16.0068 4.84656C16.1708 5.2892 16.2746 5.74277 16.3238 6.20726C16.4986 7.84666 15.9631 9.55164 14.7062 10.803ZM31.1002 10.803C30.577 11.3276 29.9551 11.7435 29.2705 12.0267C28.5859 12.31 27.8519 12.455 27.111 12.4534C26.9034 12.4534 26.6957 12.4424 26.4935 12.4151C26.2073 12.3885 25.9239 12.3373 25.6465 12.2621V15.2895H24.5536V10.5298C24.182 10.6555 23.794 10.7375 23.4005 10.7757C23.1983 10.803 22.9907 10.814 22.783 10.814C21.3403 10.814 19.8977 10.2675 18.7938 9.16365C17.5369 7.91224 17.0014 6.20726 17.1763 4.56786C17.2255 4.10337 17.3293 3.6498 17.4932 3.20716C18.1237 2.97724 18.7894 2.85889 19.4605 2.85742C20.9687 2.85742 22.3841 3.44214 23.4497 4.50775C24.5044 5.55697 25.0509 6.92313 25.0946 8.30023C25.3678 7.51332 25.8159 6.77559 26.4443 6.14715C27.51 5.08154 28.9253 4.49682 30.4336 4.49682C31.1046 4.49829 31.7704 4.61664 32.4008 4.84656C32.5648 5.2892 32.6686 5.74277 32.7178 6.20726C32.8927 7.84666 32.3571 9.55164 31.1002 10.803ZM31.0183 24.268V28.1534C31.0183 28.6944 30.5756 29.1425 30.0292 29.1425H4.15396C3.6075 29.1425 3.16486 28.6944 3.16486 28.1534V24.268C3.16486 23.727 3.6075 23.2789 4.15396 23.2789H30.0456C30.5866 23.2898 31.0183 23.7325 31.0183 24.268ZM31.0347 17.3169V21.1968C31.0347 21.7433 30.592 22.186 30.0456 22.186H4.15396C3.89449 22.1817 3.6471 22.0755 3.46513 21.8905C3.28317 21.7055 3.18122 21.4564 3.18125 21.1968V17.3169C3.18125 16.7759 3.62389 16.3278 4.17036 16.3278H30.0456C30.592 16.3278 31.0347 16.7759 31.0347 17.3169Z" fill="#3A6B22"/>
</g>
<defs>
<clipPath id="clip0_1271_5251">
<rect width="32" height="32" fill="white" transform="translate(0.75)"/>
</clipPath>
</defs>
</svg>
