<svg width="33" height="32" viewBox="0 0 33 32" fill="none" xmlns="http://www.w3.org/2000/svg">
<path d="M22.5838 2.66675C22.5838 2.12008 22.1305 1.66675 21.5838 1.66675C21.0371 1.66675 20.5838 2.12008 20.5838 2.66675V4.66675H11.9171V2.66675C11.9171 2.12008 11.4638 1.66675 10.9171 1.66675C10.3705 1.66675 9.91713 2.12008 9.91713 2.66675V4.74675C6.31714 5.08008 4.57047 7.22675 4.3038 10.4134C4.27714 10.8001 4.59714 11.1201 4.97047 11.1201H27.5305C27.9171 11.1201 28.2371 10.7867 28.1971 10.4134C27.9305 7.22675 26.1838 5.08008 22.5838 4.74675V2.66675Z" fill="#3A6B22"/>
<path fill-rule="evenodd" clip-rule="evenodd" d="M5.58333 13.1199C4.85 13.1199 4.25 13.7199 4.25 14.4532V22.6665C4.25 26.6665 6.25 29.3332 10.9167 29.3332H21.5833C26.25 29.3332 28.25 26.6665 28.25 22.6665V14.4532C28.25 13.7199 27.65 13.1199 26.9167 13.1199H5.58333ZM12.33 24.4399C12.25 24.4932 12.17 24.5332 12.09 24.5599C12.01 24.5999 11.93 24.6265 11.85 24.6399C11.7567 24.6532 11.6767 24.6665 11.5833 24.6665C11.41 24.6665 11.2367 24.6265 11.0767 24.5599C10.9033 24.4932 10.77 24.3999 10.6367 24.2799C10.3967 24.0265 10.25 23.6799 10.25 23.3332C10.25 22.9865 10.3967 22.6399 10.6367 22.3865C10.77 22.2665 10.9033 22.1732 11.0767 22.1065C11.3167 21.9999 11.5833 21.9732 11.85 22.0265C11.93 22.0399 12.01 22.0665 12.09 22.1065C12.17 22.1332 12.25 22.1732 12.33 22.2265C12.3967 22.2799 12.4633 22.3332 12.53 22.3865C12.77 22.6399 12.9167 22.9865 12.9167 23.3332C12.9167 23.6799 12.77 24.0265 12.53 24.2799C12.4633 24.3332 12.3967 24.3999 12.33 24.4399ZM11.5833 19.9999C11.2367 19.9999 10.89 19.8532 10.6367 19.6132C10.3967 19.3599 10.25 19.0132 10.25 18.6665C10.25 18.3199 10.3967 17.9732 10.6367 17.7199C11.01 17.3465 11.5967 17.2265 12.09 17.4399C12.2633 17.5065 12.41 17.5999 12.53 17.7199C12.77 17.9732 12.9167 18.3199 12.9167 18.6665C12.9167 19.0132 12.77 19.3599 12.53 19.6132C12.2767 19.8532 11.93 19.9999 11.5833 19.9999ZM16.25 24.6665C15.9033 24.6665 15.5567 24.5199 15.3033 24.2799C15.0633 24.0265 14.9167 23.6799 14.9167 23.3332C14.9167 22.9865 15.0633 22.6399 15.3033 22.3865C15.7967 21.8932 16.7033 21.8932 17.1967 22.3865C17.4367 22.6399 17.5833 22.9865 17.5833 23.3332C17.5833 23.6799 17.4367 24.0265 17.1967 24.2799C16.9433 24.5199 16.5967 24.6665 16.25 24.6665ZM16.9967 19.7732C16.9167 19.8265 16.8367 19.8665 16.7567 19.8932C16.6767 19.9332 16.5967 19.9599 16.5167 19.9732C16.4233 19.9865 16.3433 19.9999 16.25 19.9999C15.9033 19.9999 15.5567 19.8532 15.3033 19.6132C15.0633 19.3599 14.9167 19.0132 14.9167 18.6665C14.9167 18.3199 15.0633 17.9732 15.3033 17.7199C15.4233 17.5999 15.57 17.5065 15.7433 17.4399C16.2367 17.2265 16.8233 17.3465 17.1967 17.7199C17.4367 17.9732 17.5833 18.3199 17.5833 18.6665C17.5833 19.0132 17.4367 19.3599 17.1967 19.6132C17.13 19.6665 17.0633 19.7199 16.9967 19.7732ZM20.9167 24.6665C20.57 24.6665 20.2233 24.5199 19.97 24.2799C19.73 24.0265 19.5833 23.6799 19.5833 23.3332C19.5833 22.9865 19.73 22.6399 19.97 22.3865C20.4633 21.8932 21.37 21.8932 21.8633 22.3865C22.1033 22.6399 22.25 22.9865 22.25 23.3332C22.25 23.6799 22.1033 24.0265 21.8633 24.2799C21.61 24.5199 21.2633 24.6665 20.9167 24.6665ZM21.6633 19.7732C21.5833 19.8265 21.5033 19.8665 21.4233 19.8932C21.3433 19.9332 21.2633 19.9599 21.1833 19.9732C21.09 19.9865 20.9967 19.9999 20.9167 19.9999C20.57 19.9999 20.2233 19.8532 19.97 19.6132C19.73 19.3599 19.5833 19.0132 19.5833 18.6665C19.5833 18.3199 19.73 17.9732 19.97 17.7199C20.1033 17.5999 20.2367 17.5065 20.41 17.4399C20.65 17.3332 20.9167 17.3065 21.1833 17.3599C21.2633 17.3732 21.3433 17.3999 21.4233 17.4399C21.5033 17.4665 21.5833 17.5065 21.6633 17.5599C21.73 17.6132 21.7967 17.6665 21.8633 17.7199C22.1033 17.9732 22.25 18.3199 22.25 18.6665C22.25 19.0132 22.1033 19.3599 21.8633 19.6132C21.7967 19.6665 21.73 19.7199 21.6633 19.7732Z" fill="#3A6B22"/>
</svg>
