<svg width="32" height="32" viewBox="0 0 32 32" fill="none" xmlns="http://www.w3.org/2000/svg">
<path d="M17.8667 21.227C18.7333 21.227 19.4533 20.4537 19.4533 19.5203C19.4533 18.3603 19.04 18.1337 18.36 17.8937L17.0133 17.427V21.227H17H17.8667Z" fill="#3A6B22"/>
<path fill-rule="evenodd" clip-rule="evenodd" d="M2.66659 15.9046C2.69326 23.2646 8.67993 29.2246 16.0399 29.1979C23.3999 29.1713 29.3599 23.1846 29.3333 15.8246C29.3066 8.46461 23.3199 2.51794 15.9599 2.53127C8.59993 2.55794 2.63993 8.54461 2.66659 15.9046ZM21.4533 19.5179C21.4533 21.5713 19.8399 23.2246 17.8666 23.2246H16.9999V23.9979C16.9999 24.5446 16.5466 24.9979 15.9999 24.9979C15.4533 24.9979 14.9999 24.5446 14.9999 23.9979V23.2246H14.5199C12.3333 23.2246 10.5599 21.3846 10.5599 19.1179C10.5599 18.5713 11.0133 18.1179 11.5599 18.1179C12.1066 18.1179 12.5599 18.5713 12.5599 19.1179C12.5599 20.2779 13.4399 21.2246 14.5199 21.2246H14.9999V16.7179L12.9866 15.9979C11.9466 15.6379 10.5466 14.8646 10.5466 12.4779C10.5466 10.4246 12.1599 8.77127 14.1333 8.77127H14.9999V7.99794C14.9999 7.45127 15.4533 6.99794 15.9999 6.99794C16.5466 6.99794 16.9999 7.45127 16.9999 7.99794V8.77127H17.4799C19.6666 8.77127 21.4399 10.6113 21.4399 12.8779C21.4399 13.4246 20.9866 13.8779 20.4399 13.8779C19.8933 13.8779 19.4399 13.4246 19.4399 12.8779C19.4399 11.7179 18.5599 10.7713 17.4799 10.7713H16.9999V15.2779L19.0133 15.9979C20.0533 16.3579 21.4533 17.1313 21.4533 19.5179Z" fill="#3A6B22"/>
<path d="M13.6558 14.1174L15.0025 14.5841V10.7708H14.1358C13.2692 10.7708 12.5625 11.5441 12.5625 12.4908C12.5625 13.6508 12.9758 13.8774 13.6558 14.1174Z" fill="#3A6B22"/>
</svg>
