<svg width="33" height="32" viewBox="0 0 33 32" fill="none" xmlns="http://www.w3.org/2000/svg">
<path d="M10.4998 8C10.4998 6.4087 11.1319 4.88258 12.2572 3.75736C13.3824 2.63214 14.9085 2 16.4998 2C18.0911 2 19.6172 2.63214 20.7424 3.75736C21.8677 4.88258 22.4998 6.4087 22.4998 8C22.4998 9.5913 21.8677 11.1174 20.7424 12.2426C19.6172 13.3679 18.0911 14 16.4998 14C14.9085 14 13.3824 13.3679 12.2572 12.2426C11.1319 11.1174 10.4998 9.5913 10.4998 8ZM5.50114 26.8067C5.5461 23.9193 6.72466 21.1654 8.78242 19.1394C10.8402 17.1135 13.6121 15.9779 16.4998 15.9779C19.3875 15.9779 22.1594 17.1135 24.2172 19.1394C26.2749 21.1654 27.4535 23.9193 27.4985 26.8067C27.5019 27.001 27.4487 27.1922 27.3452 27.3568C27.2417 27.5214 27.0925 27.6522 26.9158 27.7333C23.648 29.2316 20.0947 30.0049 16.4998 30C12.7851 30 9.2558 29.1893 6.0838 27.7333C5.90712 27.6522 5.7579 27.5214 5.65442 27.3568C5.55093 27.1922 5.49767 27.001 5.50114 26.8067Z" fill="#3A6B22"/>
</svg>
